<?xml version="1.0" standalone="no"?>
<!DOCTYPE svg PUBLIC "-//W3C//DTD SVG 20010904//EN"
 "http://www.w3.org/TR/2001/REC-SVG-20010904/DTD/svg10.dtd">
<svg version="1.0" xmlns="http://www.w3.org/2000/svg"
 width="1024.000000pt" height="1024.000000pt" viewBox="0 0 1024.000000 1024.000000"
 preserveAspectRatio="xMidYMid meet">

<g transform="translate(0.000000,1024.000000) scale(0.100000,-0.100000)"
fill="#000000" stroke="none">
<path d="M0 5120 l0 -5120 5120 0 5120 0 0 5120 0 5120 -5120 0 -5120 0 0
-5120z m5601 2100 c12 -7 19 -21 19 -41 0 -26 -19 -51 -111 -148 -172 -179
-208 -246 -176 -322 8 -19 61 -84 119 -144 58 -61 119 -126 136 -146 40 -46
81 -63 136 -57 61 7 120 50 265 195 170 167 191 167 191 -7 0 -185 -44 -294
-171 -422 -130 -132 -272 -182 -505 -176 l-123 3 -383 -382 c-424 -423 -423
-422 -556 -431 -121 -8 -213 44 -270 152 -23 43 -27 64 -27 136 0 123 25 170
174 319 649 654 614 609 591 756 -45 290 116 575 383 677 105 40 266 60 308
38z m-2324 -1112 c-2 -18 -4 -6 -4 27 0 33 2 48 4 33 2 -15 2 -42 0 -60z
m-304 -2373 c42 -43 39 -128 -5 -160 -33 -22 -110 -20 -141 5 -28 23 -43 75
-32 111 22 69 126 95 178 44z m1157 -510 l0 -525 -95 0 -95 0 0 525 0 525 95
0 95 0 0 -525z m860 0 l0 -525 -90 0 -90 0 0 58 0 57 -19 -28 c-43 -67 -131
-102 -235 -95 -127 9 -213 69 -270 188 -30 63 -31 70 -31 195 0 112 4 138 23
186 47 119 151 196 275 206 109 9 184 -23 242 -102 13 -18 14 3 15 183 l0 202
90 0 90 0 0 -525z m665 499 c102 -35 180 -107 209 -192 25 -73 27 -72 -77 -72
l-94 0 -24 37 c-47 72 -126 103 -226 88 -65 -10 -123 -66 -123 -119 0 -86 42
-115 250 -167 245 -61 320 -132 320 -302 0 -127 -56 -208 -190 -271 -63 -30
-70 -31 -200 -31 -131 0 -137 1 -202 32 -102 48 -171 131 -193 231 l-7 32 99
0 99 0 31 -43 c44 -63 108 -92 199 -92 60 1 78 5 112 27 78 52 80 153 2 204
-22 15 -98 42 -177 63 -76 21 -161 50 -189 64 -59 30 -118 93 -135 145 -17 50
-7 169 19 217 41 81 130 143 235 165 60 13 203 4 262 -16z m-2965 -84 l0 -90
-230 0 -230 0 0 -135 0 -135 215 0 215 0 0 -80 0 -80 -215 0 -215 0 0 -210 0
-210 -100 0 -100 0 0 515 0 515 330 0 330 0 0 -90z m942 -204 c121 -57 198
-196 198 -356 l0 -50 -270 0 -270 0 0 -22 c1 -31 33 -99 56 -120 72 -63 198
-62 263 2 28 29 33 30 115 30 64 0 86 -3 86 -13 0 -31 -68 -122 -114 -154 -72
-49 -141 -66 -250 -61 -80 3 -99 8 -154 38 -106 56 -165 146 -180 273 -26 214
67 393 232 447 88 29 210 23 288 -14z m3665 6 c22 -12 55 -38 72 -59 55 -66
61 -106 61 -410 l0 -273 -95 0 -95 0 0 245 c0 268 -4 293 -56 334 -25 20 -38
22 -97 19 -60 -3 -71 -7 -100 -36 l-32 -32 -3 -265 -3 -265 -99 0 -100 0 0
380 0 381 88 -3 87 -3 0 -58 c0 -31 2 -57 5 -57 3 1 14 15 25 32 44 69 117
100 225 95 51 -3 88 -10 117 -25z m736 8 c101 -31 188 -119 211 -212 l6 -28
-90 0 -90 0 -43 44 c-34 35 -51 45 -89 51 -64 10 -104 -1 -149 -42 -114 -103
-80 -351 54 -402 68 -26 160 4 197 65 12 19 25 34 28 35 66 6 182 2 182 -7 0
-34 -38 -111 -76 -153 -65 -73 -136 -104 -244 -109 -170 -8 -285 51 -350 179
-56 109 -63 257 -18 377 32 86 123 174 209 201 84 26 179 27 262 1z m-5043
-370 l0 -380 -95 0 -95 0 0 380 0 380 95 0 95 0 0 -380z m3224 103 c50 -150
93 -273 96 -273 3 1 45 124 95 275 l89 275 98 0 c54 0 98 -2 98 -5 0 -3 -38
-106 -84 -228 -272 -718 -270 -713 -346 -764 -46 -32 -93 -43 -178 -43 l-73 0
3 66 3 66 46 2 c25 1 58 10 73 20 29 19 69 95 68 130 0 12 -64 185 -141 385
-78 200 -141 366 -141 368 0 2 46 2 102 1 l102 -3 90 -272z"/>
<path d="M4394 5544 c-39 -19 -64 -62 -64 -109 0 -29 8 -45 34 -71 29 -29 41
-34 81 -34 40 0 52 5 81 34 26 26 34 42 34 71 0 48 -26 91 -66 110 -40 19 -61
19 -100 -1z"/>
<path d="M4593 3300 c-55 -12 -96 -43 -123 -95 -21 -42 -25 -63 -25 -135 1
-59 6 -94 17 -115 77 -142 270 -132 332 17 18 43 21 145 6 200 -12 41 -50 92
-84 110 -31 17 -87 25 -123 18z"/>
<path d="M3437 3319 c-63 -10 -118 -62 -136 -126 l-10 -33 180 0 179 0 -6 28
c-9 39 -41 87 -69 106 -34 22 -93 33 -138 25z"/>
</g>
</svg>
